<?xml version="1.0" standalone="no"?>
<!DOCTYPE svg PUBLIC "-//W3C//DTD SVG 1.0//EN" "http://www.w3.org/TR/2001/REC-SVG-20010904/DTD/svg10.dtd">
<svg xmlns="http://www.w3.org/2000/svg" xmlns:xlink="http://www.w3.org/1999/xlink" id="body_1" width="1024" height="768">

<g transform="matrix(4.01254 0 0 4.01254 -0 222.89655)">
	<g>
        <path d="M31.9 28.6L31.9 37.2L52.4 37.2C 51.800003 42 50.2 45.5 47.7 48C 44.7 51 40 54.3 31.900002 54.3C 19.300001 54.3 9.400002 44.1 9.400002 31.5C 9.400002 18.900002 19.2 8.6 31.9 8.6C 38.7 8.6 43.7 11.3 47.4 14.700001L47.4 14.700001L53.4 8.700001C 48.3 3.8 41.4 0 31.9 0C 14.6 0 0 14.1 0 31.4C 0 48.699997 14.6 62.8 31.9 62.8C 41.3 62.8 48.3 59.7 53.8 54C 59.5 48.3 61.2 40.4 61.2 33.9C 61.2 31.900002 61.100002 30.100002 60.7 28.500002L60.7 28.500002L31.9 28.500002L31.9 28.6z" stroke="none" fill="#4285F4" fill-rule="nonzero" />
        <path d="M86.9 21.6C 75.700005 21.6 66.5 30.1 66.5 41.9C 66.5 53.600002 75.6 62.2 86.9 62.2C 98.200005 62.2 107.3 53.6 107.3 41.9C 107.2 30.1 98.1 21.6 86.9 21.6zM86.9 54.2C 80.8 54.2 75.5 49.100002 75.5 41.9C 75.5 34.600002 80.8 29.600002 86.9 29.600002C 93 29.600002 98.3 34.600002 98.3 41.9C 98.3 49.1 93 54.2 86.9 54.2z" stroke="none" fill="#EA4335" fill-rule="nonzero" />
        <path d="M186.6 26.1L186.3 26.1C 184.3 23.7 180.5 21.6 175.6 21.6C 165.5 21.6 156.6 30.400002 156.6 41.9C 156.6 53.300003 165.40001 62.2 175.6 62.2C 180.5 62.2 184.3 60 186.3 57.600002L186.3 57.600002L186.6 57.600002L186.6 60.4C 186.6 68.1 182.40001 72.3 175.8 72.3C 170.40001 72.3 167 68.4 165.6 65.100006L165.6 65.100006L157.90001 68.3C 160.1 73.700005 166.00002 80.3 175.90001 80.3C 186.3 80.3 195.20001 74.200005 195.20001 59.200005L195.20001 59.200005L195.20001 22.7L186.80002 22.7L186.80002 26.1L186.6 26.1zM176.4 54.2C 170.29999 54.2 165.59999 49 165.59999 41.9C 165.59999 34.7 170.29999 29.600002 176.4 29.600002C 182.5 29.600002 187.2 34.800003 187.2 42C 187.3 49 182.5 54.2 176.4 54.2z" stroke="none" fill="#4285F4" fill-rule="nonzero" />
        <path d="M132.3 21.6C 121.100006 21.6 111.9 30.1 111.9 41.9C 111.9 53.600002 121 62.2 132.3 62.2C 143.6 62.2 152.7 53.6 152.7 41.9C 152.6 30.1 143.5 21.6 132.3 21.6zM132.3 54.2C 126.200005 54.2 120.9 49.100002 120.9 41.9C 120.9 34.600002 126.200005 29.600002 132.3 29.600002C 138.40001 29.600002 143.7 34.600002 143.7 41.9C 143.7 49.1 138.4 54.2 132.3 54.2z" stroke="none" fill="#FBBC05" fill-rule="nonzero" />
        <path d="M202.1 0.8L210.90001 0.8L210.90001 62.1L202.1 62.1L202.1 0.8z" stroke="none" fill="#34A853" fill-rule="nonzero" />
        <path d="M237.9 54.2C 233.4 54.2 230.2 52.100002 228.09999 48.100002L228.09999 48.100002L255.2 36.9L254.3 34.600002C 252.6 30.100002 247.5 21.700003 237 21.700003C 226.6 21.700003 217.9 29.900002 217.9 42C 217.9 53.4 226.5 62.3 238 62.3C 247.3 62.3 252.7 56.6 254.9 53.3L254.9 53.3L248 48.7C 245.6 51.9 242.4 54.2 237.9 54.2zM237.3 29.2C 240.90001 29.2 244 31.1 245 33.7L245 33.7L226.7 41.3C 226.6 32.7 232.7 29.2 237.3 29.2z" stroke="none" fill="#EA4335" fill-rule="nonzero" />
	</g>
</g>
</svg>